<svg xmlns="http://www.w3.org/2000/svg" xmlns:xlink="http://www.w3.org/1999/xlink" xmlns:serif="http://www.serif.com/" width="100%" height="100%" viewBox="0 0 103 28" xml:space="preserve" style="fill-rule:evenodd;clip-rule:evenodd;stroke-linejoin:round;stroke-miterlimit:2;">    <g transform="matrix(0.489451,0,0,0.489451,0,0)">        <path d="M25.23,11.48L25.23,1.29L0,1.29L0,11.48L7.07,11.48L7.07,44.31L0,44.31L0,54.49L25.23,54.49L25.23,44.31L18.24,44.31L18.24,11.48L25.23,11.48ZM58.06,55.33C70.83,55.33 80.56,48.26 84.43,38.15L73.87,33.36C71.67,39.97 65.59,44.53 58.06,44.53C48.64,44.53 41.42,37.31 41.42,27.89C41.42,18.47 48.64,11.25 58.06,11.25C65.58,11.25 71.66,15.81 73.87,22.42L84.43,17.63C80.56,7.52 70.83,0.46 58.06,0.46C41.27,0.46 29.72,12.62 29.72,27.89C29.72,43.16 41.27,55.33 58.07,55.33L58.06,55.33ZM132.24,28.96C132.24,38 125.86,44.54 117.04,44.54C108.22,44.54 101.84,38 101.84,28.96L101.84,1.29L90.67,1.29L90.67,29.11C90.67,44.39 101.46,55.33 117.04,55.33C132.62,55.33 143.34,44.39 143.34,29.11L143.34,1.29L132.24,1.29L132.24,28.96ZM203.6,55.71L210.44,46.89L182.7,23.79L209.6,9.81L204.96,0.01L163.31,21.59L163.31,1.29L152.21,1.29L152.21,54.49L163.31,54.49L163.31,33.82L171.9,29.41L203.59,55.71L203.6,55.71Z" style="fill-rule:nonzero;"></path>    </g></svg>