<svg xmlns="http://www.w3.org/2000/svg" xmlns:xlink="http://www.w3.org/1999/xlink" id="Vrstva_1" x="0px" y="0px" viewBox="0 0 841.89 219.405" xml:space="preserve"><g>	<g>					<rect x="6.372" y="25.759" transform="matrix(0.7071 -0.7071 0.7071 0.7071 -22.7201 54.8516)" fill="#1951A0" width="96.959" height="58.184"></rect>					<rect x="25.759" y="116.074" transform="matrix(0.7071 -0.7071 0.7071 0.7071 -100.2915 86.9825)" fill="#DD052B" width="58.184" height="96.959"></rect>		<polygon fill="#002E5F" points="41.143,109.702 0.001,150.845 0.001,68.56   "></polygon>	</g>	<g>		<path fill="#1951A0" d="M160.04,140.088c-4.558,0-8.667-0.722-12.326-2.168c-3.66-1.444-6.775-3.595-9.342-6.452   c-2.568-2.857-4.558-6.419-5.971-10.689c-1.413-4.268-2.117-9.26-2.117-14.974c0-5.649,0.704-10.673,2.117-15.072   c1.413-4.395,3.403-8.088,5.971-11.074c2.567-2.986,5.681-5.248,9.342-6.789c3.659-1.54,7.767-2.311,12.326-2.311   c6.225,0,11.362,1.268,15.407,3.804c4.045,2.537,7.286,6.534,9.726,11.99l-12.616,6.548c-0.898-2.824-2.295-5.088-4.188-6.789   c-1.894-1.701-4.669-2.552-8.329-2.552c-4.302,0-7.753,1.397-10.352,4.19c-2.599,2.793-3.9,6.853-3.9,12.18v10.785   c0,5.329,1.301,9.389,3.9,12.182c2.599,2.793,6.05,4.188,10.352,4.188c3.595,0,6.467-0.976,8.62-2.937   c2.15-1.957,3.739-4.317,4.767-7.078l11.939,6.933c-2.503,5.139-5.794,9.1-9.87,11.894   C171.418,138.691,166.265,140.088,160.04,140.088"></path>		<polygon fill="#1951A0" points="247.959,138.931 197.018,138.931 197.018,125.931 230.143,84.716 198.654,84.716 198.654,71.715    247.189,71.715 247.189,84.716 213.965,125.931 247.959,125.931   "></polygon>		<polygon fill="#1951A0" points="265.485,138.931 265.485,71.715 311.226,71.715 311.226,84.716 280.123,84.716 280.123,98.389    306.796,98.389 306.796,111.389 280.123,111.389 280.123,125.931 311.226,125.931 311.226,138.931   "></polygon>		<path fill="#1951A0" d="M356.679,140.088c-4.558,0-8.667-0.722-12.326-2.168c-3.66-1.444-6.775-3.595-9.342-6.452   c-2.568-2.857-4.558-6.419-5.971-10.689c-1.413-4.268-2.117-9.26-2.117-14.974c0-5.649,0.704-10.673,2.117-15.072   c1.413-4.395,3.403-8.088,5.971-11.074c2.567-2.986,5.681-5.248,9.342-6.789c3.659-1.54,7.767-2.311,12.326-2.311   c6.225,0,11.362,1.268,15.407,3.804c4.045,2.537,7.286,6.534,9.726,11.99l-12.616,6.548c-0.898-2.824-2.295-5.088-4.188-6.789   c-1.894-1.701-4.669-2.552-8.329-2.552c-4.302,0-7.753,1.397-10.352,4.19c-2.599,2.793-3.9,6.853-3.9,12.18v10.785   c0,5.329,1.301,9.389,3.9,12.182c2.599,2.793,6.05,4.188,10.352,4.188c3.595,0,6.467-0.976,8.62-2.937   c2.15-1.957,3.739-4.317,4.767-7.078l11.939,6.933c-2.503,5.139-5.794,9.1-9.87,11.894   C368.057,138.691,362.904,140.088,356.679,140.088"></path>		<polygon fill="#1951A0" points="436.894,111.389 411.278,111.389 411.278,138.932 396.642,138.932 396.642,71.716 411.278,71.716    411.278,98.389 436.894,98.389 436.894,71.716 451.532,71.716 451.532,138.932 436.894,138.932   "></polygon>	</g>	<g>		<rect x="477.659" y="71.715" fill="#DD052B" width="14.638" height="67.216"></rect>		<polygon fill="#DD052B" points="538.936,107.153 532.484,93.672 532.195,93.672 532.195,138.932 518.424,138.932 518.424,71.715    534.41,71.715 552.803,103.494 559.255,116.975 559.544,116.975 559.544,71.715 573.315,71.715 573.315,138.932 557.329,138.932      "></polygon>		<polygon fill="#DD052B" points="610.486,138.931 588.819,71.715 603.649,71.715 613.664,103.974 618.961,125.064 619.249,125.064    624.353,103.974 634.368,71.715 648.716,71.715 626.857,138.931   "></polygon>		<polygon fill="#DD052B" points="664.124,138.931 664.124,71.715 709.865,71.715 709.865,84.716 678.762,84.716 678.762,98.389    705.435,98.389 705.435,111.389 678.762,111.389 678.762,125.931 709.865,125.931 709.865,138.931   "></polygon>		<path fill="#DD052B" d="M750.696,140.088c-5.908,0-10.916-1.014-15.023-3.038c-4.11-2.024-7.608-4.645-10.497-7.86l9.63-9.738   c4.558,5.09,10.174,7.634,16.853,7.634c3.594,0,6.26-0.73,7.992-2.194c1.734-1.464,2.599-3.403,2.599-5.823   c0-1.845-0.513-3.387-1.54-4.627c-1.027-1.24-3.114-2.083-6.26-2.529l-6.644-0.859c-7.125-0.9-12.344-3.054-15.649-6.46   c-3.307-3.406-4.959-7.935-4.959-13.593c0-3.021,0.578-5.785,1.734-8.294c1.155-2.507,2.808-4.658,4.959-6.459   c2.15-1.799,4.782-3.199,7.896-4.195c3.113-0.996,6.659-1.494,10.64-1.494c5.072,0,9.534,0.805,13.386,2.412   c3.851,1.607,7.158,3.955,9.918,7.04l-9.726,9.839c-1.605-1.842-3.548-3.351-5.826-4.527c-2.28-1.175-5.151-1.763-8.618-1.763   c-3.276,0-5.715,0.572-7.319,1.716c-1.605,1.142-2.407,2.731-2.407,4.765c0,2.288,0.626,3.941,1.877,4.958   c1.252,1.019,3.289,1.747,6.115,2.192l6.644,1.059c6.933,1.092,12.068,3.23,15.407,6.411c3.338,3.181,5.008,7.697,5.008,13.543   c0,3.214-0.577,6.168-1.732,8.869c-1.157,2.7-2.842,5.015-5.057,6.941c-2.215,1.93-4.959,3.424-8.233,4.482   C758.592,139.556,754.868,140.088,750.696,140.088"></path>		<polygon fill="#DD052B" points="823.689,84.716 823.689,138.931 809.051,138.931 809.051,84.716 790.852,84.716 790.852,71.715    841.89,71.715 841.89,84.716   "></polygon>	</g></g></svg>