<?xml version="1.0" standalone="no"?>
<!DOCTYPE svg PUBLIC "-//W3C//DTD SVG 20010904//EN"
 "http://www.w3.org/TR/2001/REC-SVG-20010904/DTD/svg10.dtd">
<svg version="1.0" xmlns="http://www.w3.org/2000/svg"
 width="448.000000pt" height="448.000000pt" viewBox="0 0 448.000000 448.000000"
 preserveAspectRatio="xMidYMid meet">

<g transform="translate(0.000000,448.000000) scale(0.100000,-0.100000)"
fill="#000000" stroke="none">
<path d="M1315 4461 c-22 -10 -52 -31 -67 -47 -52 -56 -58 -86 -58 -299 l0
-195 -198 0 c-234 0 -290 -8 -398 -60 -153 -73 -274 -231 -303 -394 -15 -83
-15 -2929 0 -3012 38 -215 234 -408 449 -444 46 -8 505 -10 1540 -8 l1475 3
66 26 c96 37 153 73 215 136 63 64 96 118 133 212 l26 66 3 1475 c2 1035 0
1494 -8 1540 -28 166 -149 325 -303 399 -109 53 -164 61 -399 61 l-198 0 0
188 c0 103 -5 204 -11 225 -5 21 -24 54 -42 74 -103 117 -291 86 -351 -59 -13
-29 -16 -79 -16 -233 l0 -195 -630 0 -630 0 0 188 c0 103 -5 204 -11 225 -31
114 -174 179 -284 128z m85 -1906 l0 -245 -350 0 -350 0 0 245 0 245 350 0
350 0 0 -245z m1260 0 l0 -245 -420 0 -420 0 0 245 0 245 420 0 420 0 0 -245z
m1120 0 l0 -245 -350 0 -350 0 0 245 0 245 350 0 350 0 0 -245z m-2380 -945
l0 -280 -350 0 -350 0 0 280 0 280 350 0 350 0 0 -280z m1260 0 l0 -280 -420
0 -420 0 0 280 0 280 420 0 420 0 0 -280z m1120 0 l0 -280 -350 0 -350 0 0
280 0 280 350 0 350 0 0 -280z m-2380 -945 l0 -245 -297 0 c-280 0 -300 1
-331 20 -66 41 -72 63 -72 278 l0 192 350 0 350 0 0 -245z m1260 0 l0 -245
-420 0 -420 0 0 245 0 245 420 0 420 0 0 -245z m1118 46 c-3 -183 -5 -202 -24
-228 -44 -60 -60 -63 -381 -63 l-293 0 0 245 0 245 351 0 350 0 -3 -199z"/>
</g>
</svg>
