<svg width="638" height="195" viewBox="0 0 638 195" fill="none" xmlns="http://www.w3.org/2000/svg">
<path d="M637 158.897C637 159.337 636.846 159.611 636.539 159.721C636.231 159.809 635.835 159.853 635.352 159.853H616.928V191.954C616.928 192.284 616.917 192.592 616.895 192.877C616.873 193.163 616.807 193.427 616.698 193.668C616.61 193.888 616.478 194.064 616.302 194.196C616.126 194.327 615.874 194.393 615.544 194.393C614.973 194.393 614.588 194.152 614.39 193.668C614.215 193.163 614.127 192.592 614.127 191.954V159.853H595.67C595.187 159.853 594.769 159.809 594.418 159.721C594.088 159.611 593.923 159.337 593.923 158.897C593.923 158.567 594 158.326 594.154 158.172C594.308 157.996 594.495 157.875 594.714 157.809C594.956 157.744 595.22 157.711 595.505 157.711C595.813 157.689 596.099 157.678 596.362 157.678H634.627C634.957 157.678 635.264 157.689 635.55 157.711C635.835 157.711 636.077 157.744 636.275 157.809C636.495 157.875 636.67 157.996 636.802 158.172C636.934 158.326 637 158.567 637 158.897Z" fill="black"/>
<path d="M591.468 183.871C591.468 185.228 591.224 186.436 590.737 187.495C590.25 188.534 589.571 189.445 588.703 190.229C587.834 190.992 586.795 191.649 585.587 192.2C584.4 192.73 583.108 193.164 581.709 193.503C580.31 193.821 578.816 194.044 577.227 194.171C575.659 194.319 574.069 194.393 572.459 194.393C570.191 194.393 567.934 194.277 565.688 194.044C563.441 193.811 561.343 193.524 559.393 193.185C557.444 192.825 555.717 192.444 554.212 192.041C552.728 191.638 551.605 191.257 550.842 190.897C550.546 190.748 550.323 190.568 550.175 190.356C550.048 190.123 549.984 189.89 549.984 189.657C549.984 189.403 550.048 189.191 550.175 189.021C550.323 188.83 550.535 188.735 550.811 188.735C550.938 188.735 551.086 188.767 551.256 188.83C552.082 189.169 553.269 189.54 554.816 189.943C556.363 190.346 558.111 190.727 560.061 191.087C562.032 191.426 564.119 191.712 566.323 191.946C568.549 192.179 570.753 192.295 572.935 192.295C575.055 192.295 577.068 192.158 578.975 191.882C580.883 191.607 582.557 191.14 583.998 190.483C585.46 189.826 586.615 188.957 587.463 187.877C588.332 186.796 588.766 185.461 588.766 183.871C588.766 182.536 588.395 181.445 587.653 180.597C586.933 179.728 585.947 179.039 584.697 178.531C583.447 178.001 581.984 177.609 580.31 177.355C578.636 177.079 576.856 176.878 574.97 176.751C573.105 176.602 571.176 176.496 569.184 176.433C567.192 176.348 565.253 176.221 563.367 176.051C561.502 175.882 559.733 175.638 558.058 175.32C556.384 175.002 554.922 174.536 553.672 173.922C552.421 173.307 551.425 172.512 550.683 171.537C549.963 170.563 549.603 169.333 549.603 167.85C549.603 166.494 549.857 165.296 550.366 164.258C550.874 163.219 551.574 162.329 552.464 161.588C553.354 160.825 554.403 160.199 555.611 159.712C556.84 159.203 558.164 158.801 559.584 158.504C561.025 158.207 562.53 157.995 564.098 157.868C565.688 157.741 567.277 157.678 568.866 157.678C570.837 157.678 572.776 157.773 574.684 157.964C576.591 158.133 578.382 158.377 580.056 158.695C581.73 158.992 583.235 159.331 584.57 159.712C585.905 160.072 586.975 160.443 587.781 160.825C587.95 160.909 588.077 161.037 588.162 161.206C588.247 161.354 588.289 161.513 588.289 161.683C588.289 161.98 588.183 162.255 587.971 162.509C587.781 162.764 587.505 162.891 587.145 162.891C586.933 162.891 586.753 162.849 586.604 162.764C585.481 162.298 584.231 161.884 582.853 161.524C581.497 161.143 580.056 160.825 578.53 160.57C577.004 160.316 575.425 160.125 573.794 159.998C572.183 159.85 570.583 159.776 568.994 159.776C566.79 159.776 564.681 159.903 562.668 160.157C560.654 160.411 558.874 160.846 557.327 161.46C555.801 162.054 554.583 162.859 553.672 163.876C552.76 164.872 552.305 166.133 552.305 167.659C552.305 168.825 552.665 169.778 553.385 170.52C554.127 171.241 555.123 171.823 556.374 172.269C557.624 172.714 559.086 173.053 560.76 173.286C562.435 173.498 564.204 173.667 566.069 173.794C567.955 173.922 569.894 174.038 571.886 174.144C573.878 174.229 575.807 174.388 577.672 174.621C579.558 174.833 581.338 175.14 583.012 175.543C584.687 175.924 586.149 176.465 587.399 177.164C588.649 177.863 589.635 178.764 590.355 179.866C591.097 180.947 591.468 182.282 591.468 183.871Z" fill="black"/>
<path d="M542.164 176.051C542.164 179.145 541.698 181.847 540.765 184.157C539.854 186.446 538.434 188.354 536.506 189.879C534.598 191.405 532.172 192.55 529.226 193.313C526.302 194.054 522.826 194.425 518.8 194.425C514.773 194.425 511.287 194.054 508.341 193.313C505.417 192.55 503.001 191.405 501.093 189.879C499.186 188.354 497.766 186.446 496.834 184.157C495.922 181.847 495.467 179.145 495.467 176.051C495.467 172.957 495.922 170.266 496.834 167.977C497.766 165.667 499.186 163.749 501.093 162.223C503.001 160.698 505.417 159.564 508.341 158.822C511.287 158.059 514.773 157.678 518.8 157.678C522.826 157.678 526.302 158.059 529.226 158.822C532.172 159.564 534.598 160.698 536.506 162.223C538.434 163.749 539.854 165.667 540.765 167.977C541.698 170.266 542.164 172.957 542.164 176.051ZM498.169 176.051C498.169 179.018 498.593 181.53 499.44 183.585C500.288 185.641 501.56 187.326 503.255 188.64C504.972 189.932 507.123 190.875 509.708 191.469C512.294 192.041 515.324 192.327 518.8 192.327C522.275 192.327 525.306 192.041 527.891 191.469C530.477 190.875 532.628 189.932 534.344 188.64C536.061 187.326 537.343 185.641 538.191 183.585C539.038 181.53 539.462 179.018 539.462 176.051C539.462 173.106 539.038 170.605 538.191 168.549C537.343 166.472 536.061 164.788 534.344 163.495C532.628 162.181 530.477 161.238 527.891 160.666C525.306 160.072 522.275 159.776 518.8 159.776C515.324 159.776 512.294 160.072 509.708 160.666C507.123 161.238 504.972 162.181 503.255 163.495C501.56 164.788 500.288 166.472 499.44 168.549C498.593 170.605 498.169 173.106 498.169 176.051Z" fill="black"/>
<path d="M463.456 189.812L483.89 159.095C484.22 158.589 484.549 158.227 484.879 158.007C485.23 157.787 485.571 157.678 485.901 157.678C486.318 157.678 486.659 157.853 486.922 158.205C487.208 158.535 487.351 158.952 487.351 159.457V192.086C487.351 192.723 487.274 193.273 487.12 193.734C486.966 194.174 486.571 194.393 485.934 194.393C485.384 194.393 485.011 194.174 484.813 193.734C484.637 193.273 484.549 192.723 484.549 192.086V162.819L465.071 191.559C464.543 192.306 464.005 192.679 463.456 192.679C462.863 192.679 462.324 192.306 461.841 191.559L442.362 162.819V192.086C442.362 192.723 442.264 193.273 442.066 193.734C441.89 194.174 441.528 194.393 440.978 194.393C440.341 194.393 439.946 194.174 439.792 193.734C439.638 193.273 439.561 192.723 439.561 192.086V159.457C439.561 158.952 439.693 158.535 439.956 158.205C440.242 157.853 440.594 157.678 441.011 157.678C441.319 157.678 441.637 157.787 441.967 158.007C442.319 158.227 442.67 158.589 443.022 159.095L463.456 189.812Z" fill="black"/>
<path d="M396.859 192.327C400.059 192.327 403.111 192.115 406.014 191.691C408.917 191.267 411.842 190.706 414.788 190.007V176.719H398.576C398.321 176.719 398.056 176.719 397.781 176.719C397.527 176.698 397.283 176.655 397.05 176.592C396.838 176.507 396.658 176.39 396.509 176.242C396.382 176.094 396.319 175.882 396.319 175.606C396.319 175.331 396.382 175.119 396.509 174.971C396.658 174.822 396.838 174.716 397.05 174.653C397.262 174.568 397.495 174.526 397.749 174.526C398.025 174.504 398.3 174.494 398.576 174.494H414.788C415.678 174.494 416.282 174.663 416.6 175.002C416.917 175.341 417.076 175.914 417.076 176.719V190.007C417.076 190.663 416.833 191.172 416.345 191.532C415.858 191.871 415.339 192.094 414.788 192.2C411.651 192.814 408.61 193.334 405.664 193.758C402.719 194.203 399.784 194.425 396.859 194.425C392.917 194.425 389.452 194.086 386.464 193.408C383.497 192.73 381.018 191.66 379.026 190.197C377.034 188.714 375.529 186.817 374.512 184.507C373.516 182.176 373.018 179.357 373.018 176.051C373.018 172.745 373.516 169.937 374.512 167.627C375.529 165.296 377.034 163.4 379.026 161.937C381.018 160.454 383.497 159.373 386.464 158.695C389.452 158.017 392.917 157.678 396.859 157.678C399.614 157.678 402.284 157.932 404.87 158.441C407.455 158.928 410.083 159.723 412.753 160.825C413.092 160.973 413.336 161.164 413.484 161.397C413.633 161.609 413.707 161.821 413.707 162.033C413.707 162.287 413.611 162.509 413.421 162.7C413.23 162.891 412.986 162.986 412.69 162.986C412.605 162.986 412.404 162.933 412.086 162.827C409.649 161.81 407.127 161.047 404.52 160.539C401.913 160.03 399.36 159.776 396.859 159.776C393.087 159.776 389.866 160.094 387.195 160.729C384.525 161.344 382.332 162.319 380.615 163.654C378.92 164.968 377.68 166.653 376.896 168.708C376.112 170.743 375.72 173.19 375.72 176.051C375.72 178.912 376.112 181.371 376.896 183.426C377.68 185.461 378.92 187.146 380.615 188.481C382.332 189.795 384.525 190.769 387.195 191.405C389.866 192.02 393.087 192.327 396.859 192.327Z" fill="black"/>
<path d="M361.909 190.203V160.185C361.909 159.855 361.92 159.547 361.942 159.261C361.964 158.953 362.019 158.689 362.107 158.469C362.217 158.227 362.36 158.04 362.536 157.909C362.734 157.755 362.998 157.678 363.327 157.678C363.899 157.678 364.273 157.931 364.449 158.436C364.625 158.92 364.713 159.503 364.713 160.185V192.314C364.713 193.721 364.339 194.425 363.591 194.425C363.086 194.425 362.459 194.084 361.711 193.403L327.702 161.9V192.116C327.702 192.754 327.603 193.304 327.405 193.765C327.229 194.205 326.877 194.425 326.349 194.425C325.711 194.425 325.305 194.205 325.129 193.765C324.975 193.304 324.898 192.754 324.898 192.116V159.822C324.898 159.162 325.019 158.656 325.261 158.304C325.502 157.953 325.832 157.777 326.25 157.777C326.8 157.777 327.438 158.106 328.163 158.766L361.909 190.203Z" fill="black"/>
<path d="M302.715 159.855H290.938C290.652 159.855 290.367 159.855 290.081 159.855C289.795 159.855 289.531 159.822 289.289 159.756C289.069 159.69 288.882 159.591 288.728 159.459C288.596 159.305 288.53 159.096 288.53 158.832C288.53 158.502 288.607 158.26 288.761 158.106C288.915 157.953 289.102 157.843 289.322 157.777C289.564 157.711 289.828 157.678 290.114 157.678C290.4 157.678 290.674 157.678 290.938 157.678H317.295C317.625 157.678 317.933 157.678 318.219 157.678C318.505 157.678 318.746 157.711 318.944 157.777C319.164 157.843 319.34 157.953 319.472 158.106C319.604 158.26 319.67 158.48 319.67 158.766C319.67 159.074 319.604 159.305 319.472 159.459C319.34 159.591 319.164 159.69 318.944 159.756C318.746 159.822 318.505 159.855 318.219 159.855C317.933 159.855 317.625 159.855 317.295 159.855H305.519V192.248H317.295C317.625 192.248 317.933 192.248 318.219 192.248C318.505 192.248 318.746 192.281 318.944 192.347C319.164 192.413 319.34 192.523 319.472 192.677C319.604 192.831 319.67 193.051 319.67 193.337C319.67 193.644 319.604 193.875 319.472 194.029C319.34 194.161 319.164 194.26 318.944 194.326C318.746 194.392 318.505 194.425 318.219 194.425C317.933 194.425 317.625 194.425 317.295 194.425H290.938C290.674 194.425 290.4 194.425 290.114 194.425C289.828 194.425 289.564 194.392 289.322 194.326C289.102 194.26 288.915 194.15 288.761 193.996C288.607 193.842 288.53 193.6 288.53 193.271C288.53 193.007 288.596 192.809 288.728 192.677C288.882 192.523 289.069 192.413 289.289 192.347C289.531 192.281 289.795 192.248 290.081 192.248C290.367 192.248 290.652 192.248 290.938 192.248H302.715V159.855Z" fill="black"/>
<path d="M264.883 173.94L284.115 191.885C284.555 192.281 284.775 192.721 284.775 193.205C284.775 193.534 284.665 193.82 284.445 194.062C284.225 194.304 283.95 194.425 283.62 194.425C283.246 194.425 282.883 194.26 282.532 193.93L262.805 175.293L255.977 179.779V192.116C255.977 192.754 255.878 193.304 255.68 193.765C255.482 194.205 255.119 194.425 254.592 194.425C253.954 194.425 253.547 194.205 253.371 193.765C253.217 193.304 253.14 192.776 253.14 192.182V159.855C253.14 159.217 253.228 158.7 253.404 158.304C253.602 157.887 254.02 157.678 254.658 157.678C255.185 157.678 255.537 157.887 255.713 158.304C255.889 158.722 255.977 159.217 255.977 159.789V177.14L282.4 158.172C282.641 157.996 282.872 157.876 283.092 157.81C283.334 157.722 283.543 157.678 283.719 157.678C284.071 157.678 284.335 157.777 284.511 157.974C284.709 158.172 284.808 158.425 284.808 158.733C284.808 159.217 284.566 159.635 284.082 159.987L264.883 173.94Z" fill="black"/>
<path d="M245.561 169.091C245.561 170.433 245.363 171.609 244.967 172.621C244.571 173.632 244.032 174.512 243.351 175.26C242.691 176.007 241.899 176.634 240.976 177.14C240.074 177.646 239.106 178.064 238.073 178.393C237.039 178.701 235.962 178.932 234.84 179.086C233.741 179.24 232.663 179.339 231.607 179.383L243.747 192.149C243.944 192.347 244.076 192.556 244.142 192.776C244.23 192.974 244.285 193.161 244.307 193.337C244.307 193.644 244.197 193.908 243.977 194.128C243.78 194.326 243.516 194.425 243.186 194.425C242.944 194.425 242.68 194.37 242.394 194.26C242.13 194.15 241.866 193.941 241.602 193.633L228.375 179.515H216.038V191.918C216.038 192.248 216.016 192.567 215.972 192.875C215.95 193.161 215.895 193.424 215.807 193.666C215.719 193.886 215.587 194.073 215.411 194.227C215.257 194.359 215.048 194.425 214.784 194.425C214.146 194.425 213.728 194.183 213.53 193.699C213.333 193.194 213.234 192.6 213.234 191.918V158.898C213.234 158.568 213.234 158.326 213.234 158.172C213.256 157.996 213.3 157.876 213.366 157.81C213.432 157.744 213.541 157.711 213.695 157.711C213.871 157.689 214.124 157.678 214.454 157.678H224.02C226.066 157.678 228.012 157.7 229.859 157.744C231.728 157.788 233.455 157.931 235.038 158.172C236.643 158.392 238.095 158.744 239.392 159.228C240.69 159.69 241.789 160.35 242.691 161.207C243.615 162.043 244.318 163.098 244.802 164.374C245.308 165.649 245.561 167.222 245.561 169.091ZM242.757 169.091C242.757 166.914 242.35 165.21 241.536 163.978C240.745 162.725 239.557 161.801 237.974 161.207C236.39 160.591 234.433 160.218 232.102 160.086C229.771 159.932 227.077 159.855 224.02 159.855H216.038V177.338H228.408C230.321 177.338 232.146 177.25 233.883 177.074C235.621 176.898 237.138 176.524 238.436 175.952C239.755 175.359 240.8 174.523 241.569 173.445C242.361 172.368 242.757 170.916 242.757 169.091Z" fill="black"/>
<path d="M204.761 176.051C204.761 179.145 204.295 181.847 203.362 184.157C202.451 186.446 201.031 188.354 199.103 189.879C197.196 191.405 194.769 192.55 191.823 193.313C188.899 194.054 185.423 194.425 181.397 194.425C177.37 194.425 173.884 194.054 170.938 193.313C168.014 192.55 165.598 191.405 163.69 189.879C161.783 188.354 160.363 186.446 159.431 184.157C158.52 181.847 158.064 179.145 158.064 176.051C158.064 172.957 158.52 170.266 159.431 167.977C160.363 165.667 161.783 163.749 163.69 162.223C165.598 160.698 168.014 159.564 170.938 158.822C173.884 158.059 177.37 157.678 181.397 157.678C185.423 157.678 188.899 158.059 191.823 158.822C194.769 159.564 197.196 160.698 199.103 162.223C201.031 163.749 202.451 165.667 203.362 167.977C204.295 170.266 204.761 172.957 204.761 176.051ZM160.766 176.051C160.766 179.018 161.19 181.53 162.037 183.585C162.885 185.641 164.157 187.326 165.852 188.64C167.569 189.932 169.72 190.875 172.305 191.469C174.891 192.041 177.921 192.327 181.397 192.327C184.872 192.327 187.903 192.041 190.488 191.469C193.074 190.875 195.225 189.932 196.941 188.64C198.658 187.326 199.94 185.641 200.788 183.585C201.635 181.53 202.059 179.018 202.059 176.051C202.059 173.106 201.635 170.605 200.788 168.549C199.94 166.472 198.658 164.788 196.941 163.495C195.225 162.181 193.074 161.238 190.488 160.666C187.903 160.072 184.872 159.776 181.397 159.776C177.921 159.776 174.891 160.072 172.305 160.666C169.72 161.238 167.569 162.181 165.852 163.495C164.157 164.788 162.885 166.472 162.037 168.549C161.19 170.605 160.766 173.106 160.766 176.051Z" fill="black"/>
<path d="M138.525 190.302L149.543 159.492C149.719 159.052 149.916 158.645 150.136 158.271C150.356 157.876 150.653 157.678 151.027 157.678C151.467 157.678 151.764 157.799 151.918 158.04C152.094 158.282 152.182 158.524 152.182 158.766C152.182 159.008 152.138 159.261 152.05 159.525C151.984 159.789 151.896 160.075 151.786 160.383L140.141 192.677C139.899 193.183 139.679 193.6 139.482 193.93C139.284 194.26 138.965 194.425 138.525 194.425C138.085 194.425 137.755 194.26 137.535 193.93C137.337 193.6 137.151 193.183 136.975 192.677L125.957 162.065L115.005 192.677C114.829 193.183 114.62 193.6 114.378 193.93C114.137 194.26 113.807 194.425 113.389 194.425C112.949 194.425 112.619 194.26 112.399 193.93C112.201 193.6 112.014 193.183 111.838 192.677L100.227 160.383C100.117 160.075 100.007 159.789 99.8972 159.525C99.8092 159.261 99.7653 159.008 99.7653 158.766C99.7653 158.524 99.8532 158.282 100.029 158.04C100.205 157.799 100.513 157.678 100.953 157.678C101.371 157.678 101.679 157.876 101.876 158.271C102.096 158.645 102.294 159.052 102.47 159.492L113.389 190.302L124.407 159.492C124.582 159.052 124.769 158.645 124.967 158.271C125.187 157.876 125.495 157.678 125.891 157.678C126.397 157.678 126.749 157.843 126.947 158.172C127.166 158.502 127.375 158.942 127.573 159.492L138.525 190.302Z" fill="black"/>
<path d="M93.9465 176.051C93.9465 179.145 93.4803 181.847 92.5478 184.157C91.6366 186.446 90.2167 188.354 88.2882 189.879C86.3809 191.405 83.9543 192.55 81.0086 193.313C78.0841 194.054 74.6085 194.425 70.582 194.425C66.5554 194.425 63.0693 194.054 60.1236 193.313C57.199 192.55 54.7831 191.405 52.8758 189.879C50.9685 188.354 49.5486 186.446 48.6161 184.157C47.7049 181.847 47.2492 179.145 47.2492 176.051C47.2492 172.957 47.7049 170.266 48.6161 167.977C49.5486 165.667 50.9685 163.749 52.8758 162.223C54.7831 160.698 57.199 159.564 60.1236 158.822C63.0693 158.059 66.5554 157.678 70.582 157.678C74.6085 157.678 78.0841 158.059 81.0086 158.822C83.9543 159.564 86.3809 160.698 88.2882 162.223C90.2167 163.749 91.6366 165.667 92.5478 167.977C93.4803 170.266 93.9465 172.957 93.9465 176.051ZM49.9513 176.051C49.9513 179.018 50.3751 181.53 51.2228 183.585C52.0705 185.641 53.342 187.326 55.0374 188.64C56.754 189.932 58.905 190.875 61.4905 191.469C64.0759 192.041 67.1064 192.327 70.582 192.327C74.0575 192.327 77.088 192.041 79.6735 191.469C82.2589 190.875 84.41 189.932 86.1265 188.64C87.8431 187.326 89.1253 185.641 89.973 183.585C90.8207 181.53 91.2445 179.018 91.2445 176.051C91.2445 173.106 90.8207 170.605 89.973 168.549C89.1253 166.472 87.8431 164.788 86.1265 163.495C84.41 162.181 82.2589 161.238 79.6735 160.666C77.088 160.072 74.0575 159.776 70.582 159.776C67.1064 159.776 64.0759 160.072 61.4905 160.666C58.905 161.238 56.754 162.181 55.0374 163.495C53.342 164.788 52.0705 166.472 51.2228 168.549C50.3751 170.605 49.9513 173.106 49.9513 176.051Z" fill="black"/>
<path d="M0.393005 176.051C0.393005 172.745 0.891025 169.937 1.88706 167.627C2.9043 165.296 4.40895 163.4 6.40103 161.937C8.39311 160.454 10.8726 159.373 13.8395 158.695C16.8277 158.017 20.2926 157.678 24.2344 157.678C26.9894 157.678 29.6596 157.932 32.2451 158.441C34.8305 158.928 37.4584 159.723 40.1286 160.825C40.4677 160.973 40.7114 161.164 40.8597 161.397C41.0081 161.609 41.0823 161.821 41.0823 162.033C41.0823 162.287 40.9869 162.509 40.7962 162.7C40.6054 162.891 40.3617 162.986 40.065 162.986C39.9803 162.986 39.7789 162.933 39.4611 162.827C37.0239 161.81 34.502 161.047 31.8954 160.539C29.2887 160.03 26.7351 159.776 24.2344 159.776C20.4621 159.776 17.2409 160.094 14.5707 160.729C11.9004 161.344 9.70703 162.319 7.99045 163.654C6.29507 164.968 5.05532 166.653 4.2712 168.708C3.48708 170.743 3.09503 173.19 3.09503 176.051C3.09503 178.912 3.48708 181.371 4.2712 183.426C5.05532 185.461 6.29507 187.146 7.99045 188.481C9.70703 189.795 11.9004 190.769 14.5707 191.405C17.2409 192.02 20.4621 192.327 24.2344 192.327C26.7351 192.327 29.2887 192.073 31.8954 191.564C34.502 191.056 37.0239 190.293 39.4611 189.275C39.6306 189.191 39.8213 189.148 40.0332 189.148C40.3511 189.148 40.6054 189.244 40.7962 189.434C41.0081 189.625 41.1141 189.848 41.1141 190.102C41.1141 190.314 41.0399 190.526 40.8915 190.738C40.7432 190.95 40.4889 191.13 40.1286 191.278C37.4372 192.38 34.7987 193.185 32.2133 193.694C29.649 194.181 26.9894 194.425 24.2344 194.425C20.2926 194.425 16.8277 194.086 13.8395 193.408C10.8726 192.73 8.39311 191.66 6.40103 190.197C4.40895 188.714 2.9043 186.817 1.88706 184.507C0.891025 182.176 0.393005 179.357 0.393005 176.051Z" fill="black"/>
<path d="M6.37599 33.8357L6.37597 33.8357L6.37339 33.8417C3.18202 41.2429 1.61673 50.1666 1.61673 60.5639C1.61673 70.9618 3.18222 79.9159 6.37143 87.3801L6.37468 87.3877L6.37801 87.3952C9.63588 94.7933 14.4654 100.884 20.8557 105.643L20.864 105.649C27.2415 110.33 35.1319 113.721 44.4891 115.86L44.4913 115.861C53.8942 117.995 64.7568 119.053 77.0646 119.053C85.6985 119.053 94.0418 118.289 102.093 116.759L102.102 116.757C110.226 115.159 118.503 112.631 126.932 109.18L126.934 109.179C128.192 108.661 129.27 107.959 129.958 106.976C130.555 106.123 130.92 105.171 130.92 104.144C130.92 102.889 130.379 101.818 129.466 100.984C128.547 100.082 127.361 99.6859 126.067 99.6859C125.224 99.6859 124.416 99.8522 123.672 100.214C116.22 103.321 108.51 105.652 100.539 107.207C92.5431 108.767 84.7187 109.546 77.0646 109.546C65.4412 109.546 55.5714 108.598 47.4332 106.726C39.3093 104.791 32.7175 101.844 27.6013 97.9305C22.5617 93.9595 18.8811 88.9584 16.5461 82.9012C14.1961 76.7392 12.9975 69.3057 12.9975 60.5639C12.9975 51.82 14.1966 44.421 16.5452 38.3274L16.5471 38.3225C18.8837 32.1968 22.5652 27.1988 27.6003 23.2966L27.6024 23.295C32.7156 19.318 39.3044 16.3714 47.4275 14.5018L47.4275 14.5019L47.4385 14.4992C55.5734 12.5624 65.4412 11.5821 77.0646 11.5821C84.7187 11.5821 92.5431 12.3605 100.539 13.9207C108.525 15.4789 116.25 17.8159 123.715 20.9317L123.766 20.953L123.818 20.9705C124.326 21.1397 124.762 21.274 125.119 21.3678C125.427 21.4489 125.819 21.5404 126.166 21.5404C127.44 21.5404 128.592 21.1161 129.494 20.2137C130.348 19.3598 130.821 18.2951 130.821 17.0825C130.821 16.0656 130.464 15.123 129.878 14.2768C129.211 13.2448 128.187 12.4965 126.964 11.9616L126.95 11.9553L126.935 11.9493C118.569 8.49668 110.322 6.00079 102.195 4.46811C94.0778 2.87172 85.7004 2.07471 77.0646 2.07471C64.7568 2.07471 53.8942 3.13303 44.4913 5.26701L44.4891 5.26753C35.1301 7.40672 27.2381 10.8318 20.8597 15.5807C14.4633 20.277 9.63295 26.3718 6.37599 33.8357Z" fill="#443F73" stroke="#443F73" stroke-width="3"/>
<path d="M256.412 115.465L256.42 115.463C265.703 113.059 273.427 109.433 279.537 104.545C285.718 99.6545 290.276 93.5312 293.197 86.1973C296.173 78.8232 297.64 70.252 297.64 60.517C297.64 50.7846 296.174 42.2459 293.197 34.9357C290.277 27.5381 285.72 21.3809 279.537 16.4885C273.425 11.5994 265.7 8.00658 256.416 5.66824C247.197 3.26405 236.295 2.07471 223.73 2.07471C211.165 2.07471 200.229 3.26436 190.946 5.66828C181.724 8.00755 174.032 11.6018 167.92 16.4912C161.804 21.3842 157.249 27.5397 154.265 34.9324L154.265 34.9324L154.262 34.939C151.352 42.2475 149.92 50.7848 149.92 60.517C149.92 70.2496 151.353 78.8176 154.26 86.189L154.264 86.1968L154.267 86.2045C157.252 93.5317 161.807 99.6521 167.92 104.543C174.029 109.43 181.72 113.057 190.94 115.463L190.952 115.466C200.233 117.803 211.166 118.959 223.73 118.959C236.295 118.959 247.196 117.803 256.412 115.465ZM282.436 37.834L282.438 37.839C284.971 43.9798 286.266 51.5237 286.266 60.517C286.266 69.5775 284.97 77.1537 282.438 83.2934C279.91 89.425 276.099 94.429 270.997 98.3349C265.882 102.186 259.425 105.032 251.576 106.834C243.698 108.577 234.421 109.457 223.73 109.457C213.039 109.457 203.763 108.577 195.885 106.834C188.038 105.032 181.581 102.187 176.467 98.3374C171.431 94.4327 167.651 89.4282 165.121 83.2934C162.589 77.1537 161.294 69.5775 161.294 60.517C161.294 51.5237 162.589 43.9798 165.121 37.839L165.123 37.834C167.654 31.6318 171.435 26.6315 176.466 22.7959L176.468 22.7943C181.58 18.8816 188.033 16.0362 195.879 14.2998L195.879 14.2998L195.89 14.2972C203.765 12.4899 213.04 11.5768 223.73 11.5768C234.421 11.5768 243.696 12.4899 251.57 14.2972L251.582 14.2998C259.428 16.0362 265.881 18.8816 270.993 22.7943L271.002 22.8014C276.096 26.6376 279.907 31.6366 282.436 37.834Z" fill="#443F73" stroke="#443F73" stroke-width="3"/>
<path d="M328.362 24.909L386.26 110.336C387.893 112.854 389.966 114.496 392.539 114.496C394.99 114.496 397.057 112.831 398.793 110.372L398.801 110.36L398.809 110.349L456.716 24.909V111.149C456.716 113.265 457.007 115.165 457.635 116.814L457.651 116.855L457.669 116.895C458.09 117.83 458.732 118.595 459.611 119.112C460.477 119.622 461.474 119.832 462.526 119.832C463.675 119.832 464.755 119.637 465.666 119.13C466.613 118.604 467.279 117.795 467.636 116.775L467.64 116.765L467.644 116.754C468.186 115.126 468.439 113.247 468.439 111.149V9.55492C468.439 7.69983 467.912 6.04767 466.773 4.7131C465.689 3.29085 464.206 2.51343 462.424 2.51343C461.052 2.51343 459.719 2.97266 458.447 3.76763L458.429 3.77932L458.41 3.79155C457.152 4.63044 455.995 5.93984 454.912 7.60015C454.91 7.60233 454.909 7.60451 454.907 7.60669L392.539 101.36L330.164 7.59528L330.155 7.5823L330.146 7.5695C328.992 5.91086 327.767 4.6107 326.445 3.77947C325.248 2.98524 323.977 2.51343 322.655 2.51343C320.861 2.51343 319.353 3.29832 318.207 4.70946L318.207 4.70943L318.2 4.71831C317.126 6.06025 316.64 7.71053 316.64 9.55492V111.149C316.64 113.247 316.892 115.126 317.435 116.754L317.438 116.765L317.442 116.775C317.799 117.795 318.465 118.604 319.412 119.13C320.323 119.637 321.404 119.832 322.552 119.832C323.602 119.832 324.6 119.622 325.459 119.102C326.329 118.575 326.944 117.796 327.324 116.855C328.034 115.192 328.362 113.276 328.362 111.149V24.909Z" fill="#1095C8" stroke="#1095C8" stroke-width="3"/>
<path d="M594.378 116.323L594.385 116.322C603.707 113.907 611.463 110.266 617.599 105.358C623.805 100.447 628.383 94.2984 631.315 86.934C634.304 79.5295 635.776 70.9228 635.776 61.1471C635.776 51.3739 634.304 42.7996 631.315 35.4592C628.384 28.031 623.807 21.8484 617.599 16.9358C611.462 12.0266 603.704 8.41873 594.382 6.07058C585.124 3.6563 574.175 2.46191 561.558 2.46191C548.939 2.46191 537.958 3.6566 528.636 6.07058C519.375 8.41966 511.65 12.0289 505.514 16.9385C499.372 21.8517 494.799 28.0325 491.802 35.4558L491.802 35.4558L491.8 35.4624C488.878 42.8012 487.439 51.3741 487.439 61.1471C487.439 70.9206 488.878 79.5244 491.798 86.9263L491.801 86.9341L491.804 86.9418C494.802 94.2993 499.375 100.445 505.514 105.356C511.648 110.263 519.371 113.906 528.629 116.321L528.642 116.324C537.961 118.671 548.94 119.832 561.558 119.832C574.176 119.832 585.123 118.671 594.378 116.323ZM620.52 38.365L620.522 38.37C623.066 44.538 624.367 52.1148 624.367 61.1471C624.367 70.2469 623.066 77.8563 620.522 84.0231C617.983 90.1817 614.155 95.2079 609.031 99.1311C603.893 102.999 597.407 105.858 589.524 107.668C581.612 109.418 572.295 110.302 561.558 110.302C550.821 110.302 541.504 109.418 533.592 107.668C525.711 105.858 519.226 103 514.089 99.134C509.031 95.2119 505.234 90.1851 502.693 84.0231C500.15 77.8563 498.848 70.2469 498.848 61.1471C498.848 52.1148 500.149 44.538 502.693 38.37L502.695 38.365C505.237 32.1353 509.035 27.1127 514.088 23.2601L514.09 23.2584C519.224 19.3283 525.706 16.4705 533.586 14.7265L533.586 14.7265L533.598 14.7239C541.507 12.9088 550.821 11.9917 561.558 11.9917C572.295 11.9917 581.609 12.9088 589.518 14.724L589.53 14.7265C597.41 16.4705 603.892 19.3283 609.026 23.2584L609.036 23.2655C614.152 27.1188 617.98 32.1401 620.52 38.365Z" fill="#1095C8" stroke="#1095C8" stroke-width="3"/>
</svg>
