<svg xmlns="http://www.w3.org/2000/svg" id="Vrstva_1" viewBox="0 0 141.73 29.82"><defs><style>.cls-1{fill:#425cc7;}</style></defs><path class="cls-1" d="M40.33,.65V29.17h-7.01V6.76h-9.65V29.17h-7.01V6.76H7.01V29.17H0V.65H40.33Zm21.39-.65c10.1,0,16.26,5.66,16.26,14.91s-6.15,14.91-16.26,14.91-16.29-5.66-16.29-14.91S51.61,0,61.72,0Zm0,23.71c5.66,0,9.04-3.26,9.04-8.8s-3.38-8.8-9.04-8.8-9.08,3.3-9.08,8.8,3.42,8.8,9.08,8.8Zm25.34-4.4c.94,3.18,4.11,4.6,8.6,4.6s7.13-1.22,7.13-3.1c0-5.38-20.78-.81-20.78-12.1,0-5.7,5.26-8.72,12.67-8.72s11.94,2.89,13.77,7.74l-6.8,1.71c-1.1-2.08-3.5-3.54-6.97-3.54-2.65,0-5.87,.85-5.87,2.61,0,4.44,20.74,.12,20.78,11.94,.04,5.95-5.17,9.37-14.34,9.37-7.94,0-13.16-2.93-14.79-8.51l6.6-2ZM111.58,.65h25.18l-1.63,6.11h-12.47v10.18c0,4.32,2.24,6.76,6.27,6.76,4.77,0,7.01-3.42,5.5-8.31l6.64-1.87c2.57,9.41-2.57,16.29-12.14,16.29-8.23,0-13.28-5.05-13.28-13.28V6.76h-4.07V.65Z"></path></svg>